<svg viewBox="0 0 64 64" xml:space="preserve" xmlns="http://www.w3.org/2000/svg" enable-background="new 0 0 64 64"><path d="m57.804 40.846-2.005-.535c4.658-1.458 6.059-4.761 6.13-4.94l.461-1.154-1.226-.204A6.16 6.16 0 0 1 56 27.917v-.943c1.207-.914 2-2.348 2-3.974 0-1.641-.806-3.088-2.031-4H56v-3c0-8.271-6.729-15-15-15-3.844 0-7.343 1.466-10 3.851V4c0-1.654-1.346-3-3-3H4C2.346 1 1 2.346 1 4v12c0 1.654 1.346 3 3 3h3.667L17 26v-7h9.031C24.806 19.912 24 21.359 24 23c0 1.627.793 3.061 2 3.974v.943a6.16 6.16 0 0 1-5.164 6.096l-1.226.204.461 1.154c.071.179 1.472 3.482 6.13 4.94l-2.005.535A7.009 7.009 0 0 0 19 47.61V63h44V47.61a7.009 7.009 0 0 0-5.196-6.764zm-7.172 13.199-5.863 6.7-1.7-8.503 1.946-2.595 2.302 1.918L52 42.511v6.075L48.586 52l2.046 2.045zM30 48.586v-6l4.688 8.976 2.298-1.915 1.946 2.595-1.7 8.503-5.863-6.7L33.414 52 30 48.586zM50 28c0 1.053-.191 2.06-.525 3h-3.659A2.996 2.996 0 0 0 43 29h-4c-1.654 0-3 1.346-3 3s1.346 3 3 3h4a2.996 2.996 0 0 0 2.816-2h2.662A8.998 8.998 0 0 1 41 37c-4.963 0-9-4.038-9-9v-8.038a12.97 12.97 0 0 0 8.242-3.791l.758-.757.758.757A12.97 12.97 0 0 0 50 19.962V28zm-6 4c0 .551-.448 1-1 1h-4a1.001 1.001 0 0 1 0-2h4c.552 0 1 .449 1 1zm-2.5 19h-1l-1.976-2.635L41 46.302l2.476 2.063L41.5 51zm.981-6.067 4.818-4.818 3.24.864-3.856 7.456-4.202-3.502zM41 39c1.801 0 3.498-.444 5-1.214v.8l-5 5-5-5v-.8A10.928 10.928 0 0 0 41 39zm-6.299 1.115 4.818 4.818-4.206 3.505-3.89-7.449 3.278-.874zM40.82 53h.36l1.6 8h-3.56l1.6-8zm18.627-17.37C58.438 36.925 56.033 39 51 39h-.12L48 38.232v-1.753A11.066 11.066 0 0 0 50.786 33H53a2.99 2.99 0 0 0 2.156-.922 8.126 8.126 0 0 0 4.291 3.552zM54 27.917V30c0 .551-.448 1-1 1h-1.426c.271-.955.426-1.959.426-3h1c.342 0 .677-.035 1-.101v.018zM53 26h-1v-6h1c1.654 0 3 1.346 3 3s-1.346 3-3 3zM41 3c7.168 0 13 5.832 13 13v2.101A4.995 4.995 0 0 0 53 18h-2a10.998 10.998 0 0 1-7.828-3.243L41 12.586l-2.172 2.171A10.998 10.998 0 0 1 31 18h-2c-.342 0-.677.035-1 .101V16c0-7.168 5.832-13 13-13zM15 17v5l-6.667-5H4c-.552 0-1-.449-1-1V4c0-.551.448-1 1-1h24c.552 0 1 .449 1 1v3.038A14.9 14.9 0 0 0 26 16v1H15zm14 3h1v6h-1c-1.654 0-3-1.346-3-3s1.346-3 3-3zm2 19c-5.036 0-7.439-2.078-8.448-3.37A8.15 8.15 0 0 0 28 27.917v-.019c.323.067.658.102 1 .102h1c0 3.408 1.559 6.459 4 8.479v1.753L31.12 39H31zm-10 8.61a5.005 5.005 0 0 1 3.712-4.831L28 41.902v7.512L30.586 52l-1.954 1.955L34.796 61H27V50h-2v11h-4V47.61zM61 61h-4V50h-2v11h-7.796l6.164-7.045L51.414 52 54 49.414v-7.512l3.288.877A5.005 5.005 0 0 1 61 47.61V61z" fill="#fd4a18" class="fill-000000"></path><circle cx="36" cy="23" r="1" fill="#fd4a18" class="fill-000000"></circle><circle cx="46" cy="23" r="1" fill="#fd4a18" class="fill-000000"></circle><path d="M8 7c-1.654 0-3 1.346-3 3s1.346 3 3 3 3-1.346 3-3-1.346-3-3-3zm0 4a1.001 1.001 0 0 1 0-2 1.001 1.001 0 0 1 0 2zM16 7c-1.654 0-3 1.346-3 3s1.346 3 3 3 3-1.346 3-3-1.346-3-3-3zm0 4a1.001 1.001 0 0 1 0-2 1.001 1.001 0 0 1 0 2zM27 10c0-1.654-1.346-3-3-3s-3 1.346-3 3 1.346 3 3 3 3-1.346 3-3zm-3 1a1.001 1.001 0 0 1 0-2 1.001 1.001 0 0 1 0 2z" fill="#fd4a18" class="fill-000000"></path></svg>