<svg viewBox="0 0 64 64" xml:space="preserve" xmlns="http://www.w3.org/2000/svg"><path d="M11 17v43h49V17H11zm48 42H12V27h47v32zm0-33H12v-8h47v8zM36 7v4h14V7H36zm13 3H37V8h12v2zM19 7v4h4V7h-4zm3 3h-2V8h2v2zM13 7v4h4V7h-4zm3 3h-2V8h2v2zM7 7v4h4V7H7zm3 3H8V8h2v2z" fill="#fd4a18" class="fill-37474f"></path><path d="M43 20v4h14v-4H43zm13 3H44v-2h12v2zM26 20v4h4v-4h-4zm3 3h-2v-2h2v2zM20 20v4h4v-4h-4zm3 3h-2v-2h2v2zM14 20v4h4v-4h-4zm3 3h-2v-2h2v2zM53.866 33.062l.732-1.24L54 29.5l-2.322.598-.732 1.24 1.637-.422-6.258 10.598a1.981 1.981 0 0 0-2.441-.173l-3.362-4.059A1.98 1.98 0 0 0 41 36c0-1.103-.897-2-2-2s-2 .897-2 2c0 .495.187.942.486 1.292l-5.074 8.752a1.996 1.996 0 0 0-1.529.297l-3.961-2.82c.046-.167.078-.339.078-.521 0-1.103-.897-2-2-2a2.002 2.002 0 0 0-1.845 2.771l-5.649 8.301A2.007 2.007 0 0 0 17 52c-1.103 0-2 .897-2 2s.897 2 2 2 2-.897 2-2c0-.565-.238-1.074-.617-1.438l5.422-7.967c.335.251.745.405 1.195.405.559 0 1.064-.232 1.427-.603l3.797 2.703A1.962 1.962 0 0 0 30 48c0 1.103.897 2 2 2s2-.897 2-2c0-.602-.273-1.137-.695-1.503l5.002-8.627c.217.08.448.13.693.13.25 0 .487-.051.708-.136l3.513 4.242c-.137.27-.221.571-.221.894 0 1.103.897 2 2 2s2-.897 2-2c0-.184-.033-.358-.08-.528l6.524-11.048.422 1.638zM17 55c-.551 0-1-.449-1-1s.449-1 1-1 1 .449 1 1-.449 1-1 1zm8-11c-.551 0-1-.449-1-1s.449-1 1-1 1 .449 1 1-.449 1-1 1zm7 5c-.551 0-1-.449-1-1s.449-1 1-1 1 .449 1 1-.449 1-1 1zm6-13c0-.551.449-1 1-1s1 .449 1 1-.449 1-1 1-1-.449-1-1zm7 8c-.551 0-1-.449-1-1s.449-1 1-1 1 .449 1 1-.449 1-1 1z" fill="#fd4a18" class="fill-37474f"></path><path d="M10 46H5V14h47v2h1V4H4v43h6v-1zM5 5h47v8H5V5z" fill="#fd4a18" class="fill-37474f"></path></svg>