<svg viewBox="0 0 50 50" xml:space="preserve" xmlns="http://www.w3.org/2000/svg" enable-background="new 0 0 50 50"><path d="M27 26c0-5.738-3.742-10.612-8.911-12.331A6.988 6.988 0 0 0 21 8c0-3.859-3.141-7-7-7S7 4.141 7 8a6.988 6.988 0 0 0 2.911 5.669C4.742 15.388 1 20.262 1 26v1h26v-1zM9 8c0-2.757 2.243-5 5-5s5 2.243 5 5-2.243 5-5 5-5-2.243-5-5zM3.045 25C3.552 19.401 8.271 15 14 15s10.448 4.401 10.955 10H3.045zM40.089 35.669A6.988 6.988 0 0 0 43 30c0-3.859-3.141-7-7-7s-7 3.141-7 7a6.988 6.988 0 0 0 2.911 5.669C26.742 37.388 23 42.262 23 48v1h26v-1c0-5.738-3.742-10.612-8.911-12.331zM31 30c0-2.757 2.243-5 5-5s5 2.243 5 5-2.243 5-5 5-5-2.243-5-5zm-5.955 17c.507-5.599 5.226-10 10.955-10s10.448 4.401 10.955 10h-21.91zM37 19V7h-8.586l3.293-3.293-1.414-1.414L24.586 8l5.707 5.707 1.414-1.414L28.414 9H35v10zM12.293 37.707 15.586 41H9V31H7v12h8.586l-3.293 3.293 1.414 1.414L19.414 42l-5.707-5.707z" fill="#fd4a18" class="fill-000000"></path></svg>