<svg viewBox="0 0 64 64" xmlns="http://www.w3.org/2000/svg"><g data-name="Support-Call Center-Help-Information-Customer Service"><path d="M61 48H36v-9.13a7.032 7.032 0 0 0-4.1-6.38L25 29.36v-2.44A8.1 8.1 0 0 0 27.24 25H29a3.009 3.009 0 0 0 3-3v-.28A2 2 0 0 0 33 20v-4a2.006 2.006 0 0 0-2-2v-2a10 10 0 0 0-20 0v2a2.006 2.006 0 0 0-2 2v4a2.006 2.006 0 0 0 2 2h2.26A8.06 8.06 0 0 0 17 26.92v2.44l-6.9 3.13A7.032 7.032 0 0 0 6 38.87V48H3a1 1 0 0 0-1 1v4a1 1 0 0 0 1 1h2v7a1 1 0 0 0 1 1h52a1 1 0 0 0 1-1v-7h2a1 1 0 0 0 1-1v-4a1 1 0 0 0-1-1ZM26.93 35.37l.99-2.49 3.15 1.43A5.018 5.018 0 0 1 34 38.87V48h-4v-8h-2v8h-3.13l-1.62-11.83.46-.46a1.047 1.047 0 0 0 .08-.11l2.03.38A1.1 1.1 0 0 0 26 36a1 1 0 0 0 .93-.63Zm-.83-3.32-.72 1.82-1.82-.34-.42-1.26 1.08-1.07Zm.9-17.17a1 1 0 0 1-.51-.56l-.54-1.64a1.008 1.008 0 0 0-1.55-.48l-1.87 1.4a7.042 7.042 0 0 1-4.2 1.4H15v-1a6 6 0 0 1 12 0ZM29 23h-.59a8.361 8.361 0 0 0 .33-1H30a1 1 0 0 1-1 1Zm2-3h-2v-4h2Zm-18 0h-2v-4h2Zm0-6v-2a8 8 0 0 1 16 0v2a8 8 0 0 0-16 0Zm2 6v-3h3.33a9.032 9.032 0 0 0 5.4-1.8l.76-.57.11.32a2.975 2.975 0 0 0 2.4 2.01V20a5.984 5.984 0 0 1-.81 3H21v2h3.31A5.995 5.995 0 0 1 15 20Zm5.54 17.87a.879.879 0 0 0 .92 0L22.85 48h-3.7Zm-.4-3.14.58-1.73h.56l.58 1.73-.86.86ZM21.59 31h-1.18L19 29.59v-1.85a7.822 7.822 0 0 0 4 0v1.85Zm-3.81.2 1.08 1.07-.42 1.26-1.82.34-.72-1.82ZM8 38.87a5.018 5.018 0 0 1 2.93-4.56l3.15-1.43.99 2.49A1 1 0 0 0 16 36a1.1 1.1 0 0 0 .18-.02l2.03-.38a1.047 1.047 0 0 0 .08.11l.46.46L17.13 48H14v-8h-2v8H8ZM57 60H7v-6h50Zm3-8H4v-2h56ZM44 18h2v2a1 1 0 0 0 1 1h4a1 1 0 0 0 1-1v-2h2a1 1 0 0 0 1-1v-4a1 1 0 0 0-1-1h-2v-2a1 1 0 0 0-1-1h-4a1 1 0 0 0-1 1v2h-2a1 1 0 0 0-1 1v4a1 1 0 0 0 1 1Zm1-4h2a1 1 0 0 0 1-1v-2h2v2a1 1 0 0 0 1 1h2v2h-2a1 1 0 0 0-1 1v2h-2v-2a1 1 0 0 0-1-1h-2Z" fill="#fd4a18" class="fill-000000"></path><path d="M36.232 26.642a1.007 1.007 0 0 0 .93.34l5.116-.858a13.04 13.04 0 0 0 5.589 1.826q.581.051 1.156.051a13 13 0 0 0 9.935-21.357 12.993 12.993 0 0 0-21.367 14.567l-1.54 4.459a1 1 0 0 0 .181.972Zm1.81-12.6a11 11 0 0 1 11.916-10 11 11 0 1 1-1.918 21.916 10.86 10.86 0 0 1-5.011-1.723 1 1 0 0 0-.544-.16 1.021 1.021 0 0 0-.165.014l-3.83.642 1.138-3.3a1 1 0 0 0-.085-.837 10.912 10.912 0 0 1-1.501-6.553ZM23 18h2v2h-2zM17 18h2v2h-2z" fill="#fd4a18" class="fill-000000"></path></g></svg>