<svg data-name="Material Expand" viewBox="0 0 64 64" xmlns="http://www.w3.org/2000/svg"><path d="M60 34H34v-3.5a6.508 6.508 0 0 0-6.5-6.5h-13a2.5 2.5 0 0 1 0-5h33a6.5 6.5 0 0 0 0-13H24v4h23.5a2.5 2.5 0 0 1 0 5h-33a6.5 6.5 0 0 0 0 13h13a2.5 2.5 0 0 1 2.5 2.5V34H4a2 2 0 0 0-2 2v24a2 2 0 0 0 2 2h56a2 2 0 0 0 2-2V36a2 2 0 0 0-2-2Zm-2 24H6V38h52Z" fill="#fd4a18" class="fill-000000"></path><path d="M10 50h4v4h-4zM10 42h4v4h-4zM18 42h4v4h-4zM26 42h4v4h-4zM34 42h4v4h-4zM42 42h4v4h-4zM50 42h4v4h-4zM18 50h4v4h-4zM42 50h4v4h-4zM50 50h4v4h-4zM26 50h12v4H26zM16 6h4v4h-4z" fill="#fd4a18" class="fill-000000"></path></svg>