<svg viewBox="0 0 500 500" xml:space="preserve" xmlns="http://www.w3.org/2000/svg"><g clip-rule="evenodd" fill="none" fill-rule="evenodd" stroke="#fd4a18" stroke-linecap="round" stroke-linejoin="round" stroke-miterlimit="2.613" stroke-width="10" class="stroke-130b7a"><path d="M51.915 342.866h396.169V120.794c0-7.3-5.974-13.264-13.285-13.264H65.189c-7.301 0-13.274 5.963-13.274 13.264v222.072z"></path><path d="M259.483 144.506h137.218a3.222 3.222 0 0 1 3.214 3.213v64.55a3.222 3.222 0 0 1-3.214 3.213H259.483a3.224 3.224 0 0 1-3.224-3.213v-64.55a3.225 3.225 0 0 1 3.224-3.213zM25 342.985h450v34.625M475 377.61c0 8.185-6.697 14.859-14.85 14.859M460.15 392.47H36.894M36.894 392.47c-6.545 0-11.894-5.349-11.894-11.895M25 380.575v-37.59M46.847 367.722h145.834"></path><path d="M402.233 370.871c1.736 0 3.138-1.424 3.138-3.149 0-1.747-1.401-3.138-3.138-3.138s-3.148 1.391-3.148 3.138a3.16 3.16 0 0 0 3.148 3.149M425.806 370.871a3.16 3.16 0 0 0 3.149-3.149 3.137 3.137 0 0 0-3.149-3.138 3.12 3.12 0 0 0-3.138 3.138 3.144 3.144 0 0 0 3.138 3.149M447.416 370.871a3.16 3.16 0 0 0 3.148-3.149 3.136 3.136 0 0 0-3.148-3.138 3.134 3.134 0 0 0-3.139 3.138c0 1.725 1.413 3.149 3.139 3.149M253.865 243.002h146.05M401.554 267.76H200.132M179.515 267.76H91.684M91.684 292.519h123.555M235.286 292.519h166.268M91.684 317.277h309.87M124.218 158.514l-30.215 31.315 30.84 31.639M185.747 158.514l30.215 31.315-30.84 31.639M173.195 144.506l-33.525 90.958"></path></g></svg>