<svg viewBox="0 0 512 512" xml:space="preserve" xmlns="http://www.w3.org/2000/svg" fill-rule="evenodd" clip-rule="evenodd" stroke-linejoin="round" stroke-miterlimit="2"><g display="inline"><path d="M0 252.647c-5.699 5.698-13.584 8.967-21.633 8.967h-90.87c-8.175 0-15.861-3.185-21.643-8.967-5.777-5.776-8.958-13.459-8.958-21.633s3.184-15.863 8.958-21.643c5.775-5.777 13.461-8.957 21.643-8.957h90.87c8.175 0 15.858 3.18 21.627 8.951 5.786 5.793 8.973 13.481 8.973 21.649 0 8.049-3.269 15.934-8.967 21.633M-176.243 68.584c0-9.998 8.138-18.13 18.139-18.13 9.998 0 18.13 8.132 18.13 18.13 0 10.002-8.132 18.14-18.13 18.14-10.001 0-18.139-8.138-18.139-18.14m95.99 260.549h-273.56V129.184h35.2c16.18 0 31.398-6.3 42.856-17.744 7.82-7.819 13.234-17.403 15.881-27.856h56.038c6.32 19.22 24.428 33.14 45.734 33.14 26.54 0 48.13-21.596 48.13-48.14 0-26.54-21.59-48.13-48.13-48.13-21.305 0-39.412 13.915-45.733 33.13h-56.04c-2.649-10.449-8.064-20.032-15.886-27.854-11.458-11.443-26.675-17.746-42.85-17.746h-35.2v-50.12h49.951c2.36 7.426 6.471 14.235 12.142 19.906 9.32 9.32 21.713 14.454 34.897 14.454h79.58c13.182 0 25.576-5.133 34.905-14.463 5.662-5.672 9.767-12.477 12.124-19.897h49.961v212.55h-32.25c-16.195 0-31.416 6.301-42.862 17.75-11.439 11.451-17.739 26.67-17.739 42.85 0 16.188 6.302 31.404 17.745 42.846 11.448 11.449 26.669 17.754 42.856 17.754h32.25zM-434.077 90.227c-5.776-5.775-8.956-13.462-8.956-21.643 0-8.175 3.181-15.858 8.956-21.634 5.699-5.699 13.583-8.966 21.634-8.966h93.83c8.168 0 15.857 3.186 21.643 8.966 5.776 5.776 8.957 13.459 8.957 21.634 0 8.181-3.181 15.868-8.95 21.636-5.787 5.781-13.476 8.964-21.65 8.964h-93.83c-8.175 0-15.857-3.181-21.634-8.957M-270.506-70.82c3.6-3.6 8.588-5.666 13.683-5.666h79.58a19.485 19.485 0 0 1 13.682 5.665 19.489 19.489 0 0 1 5.667 13.685v.01a19.25 19.25 0 0 1-5.666 13.683 19.48 19.48 0 0 1-13.683 5.667h-79.58a19.48 19.48 0 0 1-13.683-5.667c-3.661-3.661-5.677-8.52-5.677-13.693a19.202 19.202 0 0 1 5.677-13.684m291.72 258.978c-11.442-11.443-26.658-17.744-42.847-17.744h-28.62v-227.55c0-8.284-6.716-15-15-15h-64.962c-2.358-7.424-6.466-14.23-12.132-19.897-9.32-9.32-21.713-14.453-34.896-14.453h-79.58c-13.184 0-25.577 5.133-34.889 14.446-5.674 5.666-9.788 12.473-12.148 19.904h-64.953c-8.284 0-15 6.716-15 15v65.12h-28.63c-16.182 0-31.399 6.305-42.847 17.753-11.442 11.442-17.743 26.659-17.743 42.847 0 16.195 6.302 31.415 17.743 42.856 11.443 11.442 26.659 17.744 42.847 17.744h28.63v214.949c0 8.285 6.716 15 15 15h303.56c8.284 0 15-6.715 15-15v-52.519h28.62c16.181 0 31.398-6.305 42.846-17.754 11.449-11.448 17.754-26.665 17.754-42.846 0-16.175-6.303-31.392-17.753-42.856" transform="translate(473.03 129.68)" fill-rule="nonzero" fill="#fd4a18" class="fill-000000"></path><path d="M0 30h49.7c8.285 0 15-6.716 15-15 0-8.284-6.715-15-15-15H0c-8.284 0-15 6.716-15 15 0 8.284 6.716 15 15 15" transform="translate(202.15 292.54)" fill-rule="nonzero" fill="#fd4a18" class="fill-000000"></path><path d="M0-30h-49.7c-8.284 0-15 6.716-15 15 0 8.284 6.716 15 15 15H0c8.285 0 15-6.716 15-15 0-8.284-6.715-15-15-15" transform="translate(251.85 428.73)" fill-rule="nonzero" fill="#fd4a18" class="fill-000000"></path><path d="M0-30h-95.85c-8.284 0-15 6.716-15 15 0 8.284 6.716 15 15 15H0c8.285 0 15-6.716 15-15 0-8.284-6.715-15-15-15" transform="translate(251.85 375.63)" fill-rule="nonzero" fill="#fd4a18" class="fill-000000"></path></g></svg>