<svg data-name="Layer 1" viewBox="0 0 100 100" xmlns="http://www.w3.org/2000/svg"><path d="m79.3 62.78-8.65-8.65A28.21 28.21 0 0 0 30.8 14.28l-5.46-5.46-3.19-3.19a1.41 1.41 0 0 0-2 2l2.22 2.22a37.3 37.3 0 0 0 26.22 62.64v11.25c-12.52.26-25.31 3.66-25.31 9.82V95h53.44v-1.44c0-6.16-12.79-9.59-25.31-9.83V72.47a37 37 0 0 0 23.7-9.92l2.21 2.21a1.41 1.41 0 0 0 2-2Zm-55-27.58a25.24 25.24 0 0 1 3.56-13c.41 3.9 2.4 8.67 5.69 13.54l-7.84 7.84a25.43 25.43 0 0 1-1.37-8.38Zm11-19.11c3.52 0 8.18 1.87 12.94 5L35.63 33.72a36.76 36.76 0 0 1-3.77-7.2c-1.6-4.26-1.63-7.73-.08-9.28a4.84 4.84 0 0 1 3.53-1.15Zm32.4 37.07a4.84 4.84 0 0 1-3.54 1.15c-3.52 0-8.18-1.87-12.94-5l12.62-12.62c4.86 7.39 6.28 14.05 3.86 16.47Zm-18.81-5.5a56.68 56.68 0 0 1-6.23-5.38 57.38 57.38 0 0 1-5.39-6.22l13.32-13.32A56.77 56.77 0 0 1 62.2 34.35Zm-13.64-9.59a60.18 60.18 0 0 0 5.42 6.2 60.22 60.22 0 0 0 6.2 5.42L38.54 58a25.52 25.52 0 0 1-11.61-11.61Zm13.94 13.27c4.87 3.29 9.65 5.29 13.54 5.7a25.5 25.5 0 0 1-21.39 2.15Zm22.38-3.16c-.41-3.9-2.4-8.66-5.69-13.53l7.83-7.83a25.51 25.51 0 0 1-2.14 21.36Zm1-24.16-8.32 8.32a61.29 61.29 0 0 0-11.64-11.63l8.32-8.32A25.41 25.41 0 0 1 72.54 24Zm-14.44-12.8-7.84 7.84c-4.87-3.29-9.65-5.29-13.54-5.7a25.5 25.5 0 0 1 21.39-2.15Zm15.15 80.94H26.72C29 89.47 37.45 86.53 50 86.53s21 2.94 23.28 5.63ZM49.74 69.7a34.5 34.5 0 0 1-25.37-57.87l4.45 4.45a28.21 28.21 0 0 0 39.85 39.84l4.45 4.45a34.25 34.25 0 0 1-23.38 9.13Z" fill="#fd4a18" class="fill-000000"></path></svg>