<svg viewBox="0 0 32 32" xml:space="preserve" xmlns="http://www.w3.org/2000/svg"><path d="M28.5 24a.5.5 0 0 1-.5-.5v-16c0-.275-.225-.5-.5-.5h-23c-.275 0-.5.225-.5.5v16a.5.5 0 0 1-1 0v-16C3 6.673 3.673 6 4.5 6h23c.827 0 1.5.673 1.5 1.5v16a.5.5 0 0 1-.5.5zM28.5 28h-25A2.502 2.502 0 0 1 1 25.5a.5.5 0 0 1 .5-.5h11a.5.5 0 0 1 0 1H2.086c.206.582.762 1 1.414 1h25c.652 0 1.208-.418 1.414-1H19.5a.5.5 0 0 1 0-1h11a.5.5 0 0 1 .5.5c0 1.379-1.121 2.5-2.5 2.5z" fill="#fd4a18" class="fill-263238"></path><g fill="#fd4a18" class="fill-263238"><path d="M16.899 24H15.1a.5.5 0 0 1-.488-.394l-.296-1.353a5.902 5.902 0 0 1-1.194-.496l-1.166.747a.5.5 0 0 1-.623-.067l-1.271-1.271a.5.5 0 0 1-.068-.623l.747-1.166a5.902 5.902 0 0 1-.496-1.194l-1.352-.296a.5.5 0 0 1-.393-.488V15.6c0-.235.163-.438.393-.488l1.351-.296c.123-.416.289-.815.497-1.194l-.747-1.166a.5.5 0 0 1 .067-.623l1.271-1.271a.5.5 0 0 1 .623-.067l1.167.747a5.952 5.952 0 0 1 1.193-.495l.296-1.352a.5.5 0 0 1 .49-.395H16.9c.235 0 .438.163.488.394l.296 1.352c.413.12.813.286 1.193.495l1.167-.747a.5.5 0 0 1 .623.067l1.271 1.271a.5.5 0 0 1 .067.623l-.747 1.167c.209.381.375.78.495 1.193l1.353.296a.5.5 0 0 1 .393.488v1.799a.499.499 0 0 1-.393.488l-1.353.296c-.12.412-.286.812-.495 1.193l.747 1.167a.5.5 0 0 1-.067.623l-1.271 1.273a.501.501 0 0 1-.624.067l-1.166-.749a5.867 5.867 0 0 1-1.193.495l-.296 1.354a.5.5 0 0 1-.489.395zm-1.396-1h.994l.275-1.259a.502.502 0 0 1 .374-.381 4.917 4.917 0 0 0 1.479-.613.5.5 0 0 1 .534.004l1.084.696.703-.703-.695-1.086a.5.5 0 0 1-.005-.532 4.93 4.93 0 0 0 .614-1.479.5.5 0 0 1 .381-.375l1.257-.275v-.994l-1.257-.275a.502.502 0 0 1-.381-.374 4.933 4.933 0 0 0-.614-1.48.499.499 0 0 1 .005-.532l.695-1.085-.703-.703-1.085.695a.5.5 0 0 1-.532.005 4.955 4.955 0 0 0-1.48-.614.5.5 0 0 1-.374-.38L16.497 10h-.994l-.275 1.258a.5.5 0 0 1-.375.38 4.908 4.908 0 0 0-1.479.614.499.499 0 0 1-.532-.005l-1.085-.695-.703.703.695 1.085a.5.5 0 0 1 .004.533 4.964 4.964 0 0 0-.616 1.48.497.497 0 0 1-.379.373l-1.256.275v.994l1.257.275a.502.502 0 0 1 .381.375c.122.522.328 1.02.613 1.479a.496.496 0 0 1-.004.533l-.695 1.085.703.703 1.085-.695a.503.503 0 0 1 .533-.004c.459.285.956.491 1.479.613a.5.5 0 0 1 .375.381l.274 1.26zm.496-3c-1.93 0-3.5-1.57-3.5-3.5s1.57-3.5 3.5-3.5 3.5 1.57 3.5 3.5a.5.5 0 0 1-1 0c0-1.379-1.121-2.5-2.5-2.5s-2.5 1.121-2.5 2.5a2.502 2.502 0 0 0 2.987 2.453.497.497 0 0 1 .587.394.5.5 0 0 1-.394.587 3.454 3.454 0 0 1-.68.066z"></path><circle cx="18.501" cy="18.572" r=".5"></circle></g></svg>