<svg viewBox="0 0 32 32" xml:space="preserve" xmlns="http://www.w3.org/2000/svg"><path d="M13.5 4h-5a.5.5 0 0 1 0-1h5a.5.5 0 0 1 0 1zM11.5 29h-1a.5.5 0 0 1 0-1h1a.5.5 0 0 1 0 1z" fill="#ffffff" class="fill-263238"></path><path d="M16.5 31h-11A2.502 2.502 0 0 1 3 28.5v-25C3 2.121 4.121 1 5.5 1h11C17.879 1 19 2.121 19 3.5v4a.5.5 0 0 1-1 0v-4c0-.827-.673-1.5-1.5-1.5h-11C4.673 2 4 2.673 4 3.5v25c0 .827.673 1.5 1.5 1.5h11c.827 0 1.5-.673 1.5-1.5a.5.5 0 0 1 1 0c0 1.379-1.121 2.5-2.5 2.5z" fill="#ffffff" class="fill-263238"></path><path d="M13.5 27h-1.002a.5.5 0 0 1 0-1H13.5C16.657 26 24 24.587 24 11.5V8h-1.5a.502.502 0 0 1-.433-.752l3.5-6c.18-.307.685-.307.864 0l3.5 6A.499.499 0 0 1 29.5 8H28v3.5a.5.5 0 0 1-1 0v-4a.5.5 0 0 1 .5-.5h1.129L26 2.492 23.371 7H24.5a.5.5 0 0 1 .5.5v4C25 25.489 16.958 27 13.5 27z" fill="#ffffff" class="fill-263238"></path><circle cx="27.498" cy="13.5" fill="#ffffff" r=".5" class="fill-263238"></circle><path d="M13.5 25C9.364 25 6 21.636 6 17.5S9.364 10 13.5 10s7.5 3.364 7.5 7.5-3.364 7.5-7.5 7.5zm0-14C9.916 11 7 13.916 7 17.5S9.916 24 13.5 24s6.5-2.916 6.5-6.5-2.916-6.5-6.5-6.5z" fill="#ffffff" class="fill-263238"></path><path d="M17.614 12.337a.498.498 0 0 1-.403-.794l.882-1.213a.499.499 0 1 1 .808.588l-.882 1.213a.498.498 0 0 1-.405.206zM9.386 12.337a.498.498 0 0 1-.405-.206L8.1 10.917a.499.499 0 1 1 .808-.588l.882 1.214a.499.499 0 0 1-.404.794zM14.5 9h-2a.5.5 0 0 1 0-1h2a.5.5 0 0 1 0 1zM16.248 12.744a.465.465 0 0 1 .229.305.465.465 0 0 1-.045.377.472.472 0 0 1-.305.229.504.504 0 0 1-.607-.35.474.474 0 0 1 .045-.378.476.476 0 0 1 .306-.229.465.465 0 0 1 .377.046zM11.249 21.404c.113.065.2.173.227.305a.497.497 0 0 1-.34.611c-.268.063-.555-.101-.616-.355a.478.478 0 0 1 .044-.378.518.518 0 0 1 .296-.232.506.506 0 0 1 .389.049zM18.26 14.756c.066.113.087.25.045.378a.465.465 0 0 1-.228.304.472.472 0 0 1-.378.046.503.503 0 0 1-.351-.606.476.476 0 0 1 .228-.305.474.474 0 0 1 .379-.045c.133.028.24.115.305.228zM9.6 19.756c.065.113.087.25.044.378a.475.475 0 0 1-.228.304.504.504 0 0 1-.373.056c-.264-.079-.43-.365-.355-.616a.476.476 0 0 1 .228-.305.525.525 0 0 1 .373-.054.509.509 0 0 1 .311.237zM18.996 17.504c0 .131-.049.26-.15.35a.46.46 0 0 1-.35.149.473.473 0 0 1-.35-.149.503.503 0 0 1 0-.7.476.476 0 0 1 .35-.15c.13.001.261.051.351.151.1.089.15.218.149.349zM8.997 17.504c0 .131-.05.26-.15.35a.503.503 0 0 1-.701.01c-.189-.2-.19-.531 0-.711a.476.476 0 0 1 .35-.15c.13.001.25.051.35.141.101.1.15.229.151.36zM18.26 20.252a.467.467 0 0 1-.305.228.464.464 0 0 1-.378-.045.475.475 0 0 1-.229-.305.502.502 0 0 1 .728-.561.47.47 0 0 1 .229.306.466.466 0 0 1-.045.377zM9.6 15.252a.467.467 0 0 1-.305.228c-.137.037-.265.02-.378-.045s-.2-.173-.234-.296c-.064-.268.101-.555.355-.615a.47.47 0 0 1 .378.045.516.516 0 0 1 .233.296.502.502 0 0 1-.049.387zM16.248 22.264a.467.467 0 0 1-.378.045.465.465 0 0 1-.305-.229.502.502 0 0 1 .866-.5.474.474 0 0 1 .045.379.47.47 0 0 1-.228.305zM11.248 13.604a.467.467 0 0 1-.378.045.479.479 0 0 1-.305-.229.503.503 0 0 1-.055-.373c.079-.264.365-.43.615-.355.132.029.24.116.305.229a.518.518 0 0 1 .054.373.505.505 0 0 1-.236.31zM13.5 23a.47.47 0 0 1-.35-.15c-.1-.09-.15-.22-.15-.35s.05-.26.15-.351a.503.503 0 0 1 .7 0c.1.091.15.221.15.351s-.05.26-.15.35a.47.47 0 0 1-.35.15zM13.5 13a.47.47 0 0 1-.35-.15c-.1-.1-.15-.22-.15-.35s.05-.26.14-.351c.2-.189.53-.189.71 0 .1.091.15.221.15.351s-.05.25-.14.35c-.1.1-.23.15-.36.15z" fill="#ffffff" class="fill-263238"></path><g fill="#ffffff" class="fill-263238"><path d="M13.5 16.5c.186 0 .351.064.5.153V12.5a.5.5 0 0 0-1 0v4.153a.968.968 0 0 1 .5-.153z"></path><path d="M13.5 19c-.827 0-1.5-.673-1.5-1.5s.673-1.5 1.5-1.5 1.5.673 1.5 1.5-.673 1.5-1.5 1.5zm0-2a.5.5 0 1 0 .002 1.002A.5.5 0 0 0 13.5 17z"></path></g><circle cx="27.498" cy="17.5" fill="#ffffff" r=".5" class="fill-263238"></circle><circle cx="27.498" cy="19.5" fill="#ffffff" r=".5" class="fill-263238"></circle><path d="M27.5 23a.5.5 0 0 1-.5-.5v-1a.5.5 0 0 1 1 0v1a.5.5 0 0 1-.5.5zM27.5 29h-5a.5.5 0 0 1 0-1H27v-3.5a.5.5 0 0 1 1 0v4a.5.5 0 0 1-.5.5z" fill="#ffffff" class="fill-263238"></path></svg>